<svg xmlns="http://www.w3.org/2000/svg" version="1.1" xmlns:xlink="http://www.w3.org/1999/xlink" xmlns:svgjs="http://svgjs.com/svgjs" width="1440" height="560" preserveAspectRatio="none" viewBox="0 0 1440 560">
    <g mask="url(&quot;#SvgjsMask1694&quot;)" fill="none">
        <rect width="1440" height="560" x="0" y="0" fill="rgba(53, 53, 53, 1)"></rect>
        <path d="M-41.42 342.4L-41.42 342.4" stroke="rgba(53, 53, 53, 1)" stroke-width="1.5"></path>
        <path d="M-41.42 342.4L59.38 377.54" stroke="rgba(53, 53, 53, 1)" stroke-width="1.5"></path>
        <path d="M-41.42 342.4L-59.9 494.57" stroke="rgba(53, 53, 53, 1)" stroke-width="1.5"></path>
        <path d="M-41.42 342.4L81.09 550.11" stroke="rgba(53, 53, 53, 1)" stroke-width="1.5"></path>
        <path d="M-59.9 494.57L-59.9 494.57" stroke="rgba(53, 53, 53, 1)" stroke-width="1.5"></path>
        <path d="M-59.9 494.57L81.09 550.11" stroke="rgba(53, 53, 53, 1)" stroke-width="1.5"></path>
        <path d="M-104.49 688.35L-104.49 688.35" stroke="rgba(53, 53, 53, 1)" stroke-width="1.5"></path>
        <path d="M-104.49 688.35L80.25 680.19" stroke="rgba(53, 53, 53, 1)" stroke-width="1.5"></path>
        <path d="M-104.49 688.35L-59.9 494.57" stroke="rgba(53, 53, 53, 1)" stroke-width="1.5"></path>
        <path d="M-104.49 688.35L81.09 550.11" stroke="rgba(53, 53, 53, 1)" stroke-width="1.5"></path>
        <path d="M-104.49 688.35L226.18 638.97" stroke="rgba(53, 53, 53, 1)" stroke-width="1.5"></path>
        <path d="M59.38 377.54L59.38 377.54" stroke="rgba(53, 53, 53, 1)" stroke-width="1.5"></path>
        <path d="M59.38 377.54L206.48 404.58" stroke="rgba(53, 53, 53, 1)" stroke-width="1.5"></path>
        <path d="M59.38 377.54L-59.9 494.57" stroke="rgba(53, 53, 53, 1)" stroke-width="1.5"></path>
        <path d="M59.38 377.54L81.09 550.11" stroke="rgba(53, 53, 53, 1)" stroke-width="1.5"></path>
        <path d="M59.38 377.54L237.08 489.72" stroke="rgba(53, 53, 53, 1)" stroke-width="1.5"></path>
        <path d="M81.09 550.11L81.09 550.11" stroke="rgba(53, 53, 53, 1)" stroke-width="1.5"></path>
        <path d="M81.09 550.11L80.25 680.19" stroke="rgba(53, 53, 53, 1)" stroke-width="1.5"></path>
        <path d="M80.25 680.19L80.25 680.19" stroke="rgba(53, 53, 53, 1)" stroke-width="1.5"></path>
        <path d="M80.25 680.19L226.18 638.97" stroke="rgba(53, 53, 53, 1)" stroke-width="1.5"></path>
        <path d="M206.48 404.58L206.48 404.58" stroke="rgba(53, 53, 53, 1)" stroke-width="1.5"></path>
        <path d="M206.48 404.58L237.08 489.72" stroke="rgba(53, 53, 53, 1)" stroke-width="1.5"></path>
        <path d="M206.48 404.58L353.6 393.85" stroke="rgba(53, 53, 53, 1)" stroke-width="1.5"></path>
        <path d="M237.08 489.72L237.08 489.72" stroke="rgba(53, 53, 53, 1)" stroke-width="1.5"></path>
        <path d="M237.08 489.72L377.78 502" stroke="rgba(53, 53, 53, 1)" stroke-width="1.5"></path>
        <path d="M226.18 638.97L226.18 638.97" stroke="rgba(53, 53, 53, 1)" stroke-width="1.5"></path>
        <path d="M226.18 638.97L237.08 489.72" stroke="rgba(53, 53, 53, 1)" stroke-width="1.5"></path>
        <path d="M226.18 638.97L389.82 679.17" stroke="rgba(53, 53, 53, 1)" stroke-width="1.5"></path>
        <path d="M226.18 638.97L81.09 550.11" stroke="rgba(53, 53, 53, 1)" stroke-width="1.5"></path>
        <path d="M226.18 638.97L377.78 502" stroke="rgba(53, 53, 53, 1)" stroke-width="1.5"></path>
        <path d="M226.18 638.97L206.48 404.58" stroke="rgba(53, 53, 53, 1)" stroke-width="1.5"></path>
        <path d="M353.6 393.85L353.6 393.85" stroke="rgba(53, 53, 53, 1)" stroke-width="1.5"></path>
        <path d="M353.6 393.85L377.78 502" stroke="rgba(53, 53, 53, 1)" stroke-width="1.5"></path>
        <path d="M377.78 502L377.78 502" stroke="rgba(53, 53, 53, 1)" stroke-width="1.5"></path>
        <path d="M377.78 502L491.52 527.69" stroke="rgba(53, 53, 53, 1)" stroke-width="1.5"></path>
        <path d="M377.78 502L389.82 679.17" stroke="rgba(53, 53, 53, 1)" stroke-width="1.5"></path>
        <path d="M377.78 502L206.48 404.58" stroke="rgba(53, 53, 53, 1)" stroke-width="1.5"></path>
        <path d="M377.78 502L507.22 349.43" stroke="rgba(53, 53, 53, 1)" stroke-width="1.5"></path>
        <path d="M389.82 679.17L389.82 679.17" stroke="rgba(53, 53, 53, 1)" stroke-width="1.5"></path>
        <path d="M389.82 679.17L536.12 650.67" stroke="rgba(53, 53, 53, 1)" stroke-width="1.5"></path>
        <path d="M389.82 679.17L491.52 527.69" stroke="rgba(53, 53, 53, 1)" stroke-width="1.5"></path>
        <path d="M389.82 679.17L237.08 489.72" stroke="rgba(53, 53, 53, 1)" stroke-width="1.5"></path>
        <path d="M507.22 349.43L507.22 349.43" stroke="rgba(53, 53, 53, 1)" stroke-width="1.5"></path>
        <path d="M507.22 349.43L640.55 396.33" stroke="rgba(53, 53, 53, 1)" stroke-width="1.5"></path>
        <path d="M507.22 349.43L638.97 259.83" stroke="rgba(53, 53, 53, 1)" stroke-width="1.5"></path>
        <path d="M507.22 349.43L353.6 393.85" stroke="rgba(53, 53, 53, 1)" stroke-width="1.5"></path>
        <path d="M507.22 349.43L491.52 527.69" stroke="rgba(53, 53, 53, 1)" stroke-width="1.5"></path>
        <path d="M491.52 527.69L491.52 527.69" stroke="rgba(53, 53, 53, 1)" stroke-width="1.5"></path>
        <path d="M491.52 527.69L536.12 650.67" stroke="rgba(53, 53, 53, 1)" stroke-width="1.5"></path>
        <path d="M536.12 650.67L536.12 650.67" stroke="rgba(53, 53, 53, 1)" stroke-width="1.5"></path>
        <path d="M536.12 650.67L691.28 661.21" stroke="rgba(53, 53, 53, 1)" stroke-width="1.5"></path>
        <path d="M536.12 650.67L682.2 517.18" stroke="rgba(53, 53, 53, 1)" stroke-width="1.5"></path>
        <path d="M638.97 259.83L638.97 259.83" stroke="rgba(53, 53, 53, 1)" stroke-width="1.5"></path>
        <path d="M638.97 259.83L640.55 396.33" stroke="rgba(53, 53, 53, 1)" stroke-width="1.5"></path>
        <path d="M638.97 259.83L797.1 217.86" stroke="rgba(53, 53, 53, 1)" stroke-width="1.5"></path>
        <path d="M638.97 259.83L802.93 382.79" stroke="rgba(53, 53, 53, 1)" stroke-width="1.5"></path>
        <path d="M640.55 396.33L640.55 396.33" stroke="rgba(53, 53, 53, 1)" stroke-width="1.5"></path>
        <path d="M640.55 396.33L682.2 517.18" stroke="rgba(53, 53, 53, 1)" stroke-width="1.5"></path>
        <path d="M640.55 396.33L802.93 382.79" stroke="rgba(53, 53, 53, 1)" stroke-width="1.5"></path>
        <path d="M640.55 396.33L491.52 527.69" stroke="rgba(53, 53, 53, 1)" stroke-width="1.5"></path>
        <path d="M682.2 517.18L682.2 517.18" stroke="rgba(53, 53, 53, 1)" stroke-width="1.5"></path>
        <path d="M682.2 517.18L819.07 515.96" stroke="rgba(53, 53, 53, 1)" stroke-width="1.5"></path>
        <path d="M682.2 517.18L691.28 661.21" stroke="rgba(53, 53, 53, 1)" stroke-width="1.5"></path>
        <path d="M682.2 517.18L808.93 638.21" stroke="rgba(53, 53, 53, 1)" stroke-width="1.5"></path>
        <path d="M682.2 517.18L802.93 382.79" stroke="rgba(53, 53, 53, 1)" stroke-width="1.5"></path>
        <path d="M691.28 661.21L691.28 661.21" stroke="rgba(53, 53, 53, 1)" stroke-width="1.5"></path>
        <path d="M691.28 661.21L808.93 638.21" stroke="rgba(53, 53, 53, 1)" stroke-width="1.5"></path>
        <path d="M691.28 661.21L819.07 515.96" stroke="rgba(53, 53, 53, 1)" stroke-width="1.5"></path>
        <path d="M691.28 661.21L491.52 527.69" stroke="rgba(53, 53, 53, 1)" stroke-width="1.5"></path>
        <path d="M691.28 661.21L640.55 396.33" stroke="rgba(53, 53, 53, 1)" stroke-width="1.5"></path>
        <path d="M849.64 112.17L849.64 112.17" stroke="rgba(53, 53, 53, 1)" stroke-width="1.5"></path>
        <path d="M849.64 112.17L797.1 217.86" stroke="rgba(53, 53, 53, 1)" stroke-width="1.5"></path>
        <path d="M849.64 112.17L979.19 58.82" stroke="rgba(53, 53, 53, 1)" stroke-width="1.5"></path>
        <path d="M849.64 112.17L968.86 247.5" stroke="rgba(53, 53, 53, 1)" stroke-width="1.5"></path>
        <path d="M849.64 112.17L638.97 259.83" stroke="rgba(53, 53, 53, 1)" stroke-width="1.5"></path>
        <path d="M849.64 112.17L1098.83 47.08" stroke="rgba(53, 53, 53, 1)" stroke-width="1.5"></path>
        <path d="M797.1 217.86L797.1 217.86" stroke="rgba(53, 53, 53, 1)" stroke-width="1.5"></path>
        <path d="M802.93 382.79L802.93 382.79" stroke="rgba(53, 53, 53, 1)" stroke-width="1.5"></path>
        <path d="M802.93 382.79L819.07 515.96" stroke="rgba(53, 53, 53, 1)" stroke-width="1.5"></path>
        <path d="M819.07 515.96L819.07 515.96" stroke="rgba(53, 53, 53, 1)" stroke-width="1.5"></path>
        <path d="M819.07 515.96L808.93 638.21" stroke="rgba(53, 53, 53, 1)" stroke-width="1.5"></path>
        <path d="M819.07 515.96L944.34 542.36" stroke="rgba(53, 53, 53, 1)" stroke-width="1.5"></path>
        <path d="M808.93 638.21L808.93 638.21" stroke="rgba(53, 53, 53, 1)" stroke-width="1.5"></path>
        <path d="M808.93 638.21L944.34 542.36" stroke="rgba(53, 53, 53, 1)" stroke-width="1.5"></path>
        <path d="M808.93 638.21L985.09 678.55" stroke="rgba(53, 53, 53, 1)" stroke-width="1.5"></path>
        <path d="M808.93 638.21L802.93 382.79" stroke="rgba(53, 53, 53, 1)" stroke-width="1.5"></path>
        <path d="M979.19 58.82L979.19 58.82" stroke="rgba(53, 53, 53, 1)" stroke-width="1.5"></path>
        <path d="M979.19 58.82L1098.83 47.08" stroke="rgba(53, 53, 53, 1)" stroke-width="1.5"></path>
        <path d="M979.19 58.82L968.86 247.5" stroke="rgba(53, 53, 53, 1)" stroke-width="1.5"></path>
        <path d="M979.19 58.82L1137.15 -70.93" stroke="rgba(53, 53, 53, 1)" stroke-width="1.5"></path>
        <path d="M968.86 247.5L968.86 247.5" stroke="rgba(53, 53, 53, 1)" stroke-width="1.5"></path>
        <path d="M968.86 247.5L984.59 398.29" stroke="rgba(53, 53, 53, 1)" stroke-width="1.5"></path>
        <path d="M968.86 247.5L1088.9 344.6" stroke="rgba(53, 53, 53, 1)" stroke-width="1.5"></path>
        <path d="M968.86 247.5L797.1 217.86" stroke="rgba(53, 53, 53, 1)" stroke-width="1.5"></path>
        <path d="M968.86 247.5L1143.59 197.87" stroke="rgba(53, 53, 53, 1)" stroke-width="1.5"></path>
        <path d="M984.59 398.29L984.59 398.29" stroke="rgba(53, 53, 53, 1)" stroke-width="1.5"></path>
        <path d="M984.59 398.29L1088.9 344.6" stroke="rgba(53, 53, 53, 1)" stroke-width="1.5"></path>
        <path d="M984.59 398.29L944.34 542.36" stroke="rgba(53, 53, 53, 1)" stroke-width="1.5"></path>
        <path d="M984.59 398.29L802.93 382.79" stroke="rgba(53, 53, 53, 1)" stroke-width="1.5"></path>
        <path d="M984.59 398.29L1154.06 493.39" stroke="rgba(53, 53, 53, 1)" stroke-width="1.5"></path>
        <path d="M984.59 398.29L819.07 515.96" stroke="rgba(53, 53, 53, 1)" stroke-width="1.5"></path>
        <path d="M944.34 542.36L944.34 542.36" stroke="rgba(53, 53, 53, 1)" stroke-width="1.5"></path>
        <path d="M944.34 542.36L985.09 678.55" stroke="rgba(53, 53, 53, 1)" stroke-width="1.5"></path>
        <path d="M985.09 678.55L985.09 678.55" stroke="rgba(53, 53, 53, 1)" stroke-width="1.5"></path>
        <path d="M985.09 678.55L1121.49 658.27" stroke="rgba(53, 53, 53, 1)" stroke-width="1.5"></path>
        <path d="M985.09 678.55L819.07 515.96" stroke="rgba(53, 53, 53, 1)" stroke-width="1.5"></path>
        <path d="M985.09 678.55L1154.06 493.39" stroke="rgba(53, 53, 53, 1)" stroke-width="1.5"></path>
        <path d="M1137.15 -70.93L1137.15 -70.93" stroke="rgba(53, 53, 53, 1)" stroke-width="1.5"></path>
        <path d="M1137.15 -70.93L1098.83 47.08" stroke="rgba(53, 53, 53, 1)" stroke-width="1.5"></path>
        <path d="M1137.15 -70.93L1244.59 43.17" stroke="rgba(53, 53, 53, 1)" stroke-width="1.5"></path>
        <path d="M1137.15 -70.93L1294.66 -60.34" stroke="rgba(53, 53, 53, 1)" stroke-width="1.5"></path>
        <path d="M1137.15 -70.93L1143.59 197.87" stroke="rgba(53, 53, 53, 1)" stroke-width="1.5"></path>
        <path d="M1137.15 -70.93L1430.74 -54.41" stroke="rgba(53, 53, 53, 1)" stroke-width="1.5"></path>
        <path d="M1098.83 47.08L1098.83 47.08" stroke="rgba(53, 53, 53, 1)" stroke-width="1.5"></path>
        <path d="M1098.83 47.08L1244.59 43.17" stroke="rgba(53, 53, 53, 1)" stroke-width="1.5"></path>
        <path d="M1098.83 47.08L1143.59 197.87" stroke="rgba(53, 53, 53, 1)" stroke-width="1.5"></path>
        <path d="M1143.59 197.87L1143.59 197.87" stroke="rgba(53, 53, 53, 1)" stroke-width="1.5"></path>
        <path d="M1143.59 197.87L1253.36 203" stroke="rgba(53, 53, 53, 1)" stroke-width="1.5"></path>
        <path d="M1143.59 197.87L1088.9 344.6" stroke="rgba(53, 53, 53, 1)" stroke-width="1.5"></path>
        <path d="M1143.59 197.87L1244.59 43.17" stroke="rgba(53, 53, 53, 1)" stroke-width="1.5"></path>
        <path d="M1143.59 197.87L979.19 58.82" stroke="rgba(53, 53, 53, 1)" stroke-width="1.5"></path>
        <path d="M1088.9 344.6L1088.9 344.6" stroke="rgba(53, 53, 53, 1)" stroke-width="1.5"></path>
        <path d="M1088.9 344.6L1154.06 493.39" stroke="rgba(53, 53, 53, 1)" stroke-width="1.5"></path>
        <path d="M1154.06 493.39L1154.06 493.39" stroke="rgba(53, 53, 53, 1)" stroke-width="1.5"></path>
        <path d="M1154.06 493.39L1288.55 536.23" stroke="rgba(53, 53, 53, 1)" stroke-width="1.5"></path>
        <path d="M1121.49 658.27L1121.49 658.27" stroke="rgba(53, 53, 53, 1)" stroke-width="1.5"></path>
        <path d="M1121.49 658.27L1255.18 680.86" stroke="rgba(53, 53, 53, 1)" stroke-width="1.5"></path>
        <path d="M1294.66 -60.34L1294.66 -60.34" stroke="rgba(53, 53, 53, 1)" stroke-width="1.5"></path>
        <path d="M1294.66 -60.34L1244.59 43.17" stroke="rgba(53, 53, 53, 1)" stroke-width="1.5"></path>
        <path d="M1294.66 -60.34L1430.74 -54.41" stroke="rgba(53, 53, 53, 1)" stroke-width="1.5"></path>
        <path d="M1294.66 -60.34L1409.49 101.32" stroke="rgba(53, 53, 53, 1)" stroke-width="1.5"></path>
        <path d="M1294.66 -60.34L1098.83 47.08" stroke="rgba(53, 53, 53, 1)" stroke-width="1.5"></path>
        <path d="M1294.66 -60.34L1545.65 -77.53" stroke="rgba(53, 53, 53, 1)" stroke-width="1.5"></path>
        <path d="M1244.59 43.17L1244.59 43.17" stroke="rgba(53, 53, 53, 1)" stroke-width="1.5"></path>
        <path d="M1244.59 43.17L1253.36 203" stroke="rgba(53, 53, 53, 1)" stroke-width="1.5"></path>
        <path d="M1244.59 43.17L1409.49 101.32" stroke="rgba(53, 53, 53, 1)" stroke-width="1.5"></path>
        <path d="M1253.36 203L1253.36 203" stroke="rgba(53, 53, 53, 1)" stroke-width="1.5"></path>
        <path d="M1253.36 203L1309.38 359.19" stroke="rgba(53, 53, 53, 1)" stroke-width="1.5"></path>
        <path d="M1253.36 203L1409.49 101.32" stroke="rgba(53, 53, 53, 1)" stroke-width="1.5"></path>
        <path d="M1309.38 359.19L1309.38 359.19" stroke="rgba(53, 53, 53, 1)" stroke-width="1.5"></path>
        <path d="M1309.38 359.19L1427.54 354.89" stroke="rgba(53, 53, 53, 1)" stroke-width="1.5"></path>
        <path d="M1288.55 536.23L1288.55 536.23" stroke="rgba(53, 53, 53, 1)" stroke-width="1.5"></path>
        <path d="M1288.55 536.23L1398.36 550.11" stroke="rgba(53, 53, 53, 1)" stroke-width="1.5"></path>
        <path d="M1255.18 680.86L1255.18 680.86" stroke="rgba(53, 53, 53, 1)" stroke-width="1.5"></path>
        <path d="M1255.18 680.86L1288.55 536.23" stroke="rgba(53, 53, 53, 1)" stroke-width="1.5"></path>
        <path d="M1255.18 680.86L1440.96 671.26" stroke="rgba(53, 53, 53, 1)" stroke-width="1.5"></path>
        <path d="M1430.74 -54.41L1430.74 -54.41" stroke="rgba(53, 53, 53, 1)" stroke-width="1.5"></path>
        <path d="M1430.74 -54.41L1545.65 -77.53" stroke="rgba(53, 53, 53, 1)" stroke-width="1.5"></path>
        <path d="M1430.74 -54.41L1409.49 101.32" stroke="rgba(53, 53, 53, 1)" stroke-width="1.5"></path>
        <path d="M1430.74 -54.41L1244.59 43.17" stroke="rgba(53, 53, 53, 1)" stroke-width="1.5"></path>
        <path d="M1430.74 -54.41L1575.47 108.99" stroke="rgba(53, 53, 53, 1)" stroke-width="1.5"></path>
        <path d="M1409.49 101.32L1409.49 101.32" stroke="rgba(53, 53, 53, 1)" stroke-width="1.5"></path>
        <path d="M1409.49 101.32L1457.4 215.08" stroke="rgba(53, 53, 53, 1)" stroke-width="1.5"></path>
        <path d="M1457.4 215.08L1457.4 215.08" stroke="rgba(53, 53, 53, 1)" stroke-width="1.5"></path>
        <path d="M1457.4 215.08L1574.24 221.35" stroke="rgba(53, 53, 53, 1)" stroke-width="1.5"></path>
        <path d="M1457.4 215.08L1427.54 354.89" stroke="rgba(53, 53, 53, 1)" stroke-width="1.5"></path>
        <path d="M1457.4 215.08L1575.47 108.99" stroke="rgba(53, 53, 53, 1)" stroke-width="1.5"></path>
        <path d="M1427.54 354.89L1427.54 354.89" stroke="rgba(53, 53, 53, 1)" stroke-width="1.5"></path>
        <path d="M1398.36 550.11L1398.36 550.11" stroke="rgba(53, 53, 53, 1)" stroke-width="1.5"></path>
        <path d="M1398.36 550.11L1440.96 671.26" stroke="rgba(53, 53, 53, 1)" stroke-width="1.5"></path>
        <path d="M1398.36 550.11L1556.91 498.38" stroke="rgba(53, 53, 53, 1)" stroke-width="1.5"></path>
        <path d="M1398.36 550.11L1547.41 655.96" stroke="rgba(53, 53, 53, 1)" stroke-width="1.5"></path>
        <path d="M1398.36 550.11L1255.18 680.86" stroke="rgba(53, 53, 53, 1)" stroke-width="1.5"></path>
        <path d="M1440.96 671.26L1440.96 671.26" stroke="rgba(53, 53, 53, 1)" stroke-width="1.5"></path>
        <path d="M1440.96 671.26L1547.41 655.96" stroke="rgba(53, 53, 53, 1)" stroke-width="1.5"></path>
        <path d="M1440.96 671.26L1288.55 536.23" stroke="rgba(53, 53, 53, 1)" stroke-width="1.5"></path>
        <path d="M1440.96 671.26L1556.91 498.38" stroke="rgba(53, 53, 53, 1)" stroke-width="1.5"></path>
        <path d="M1545.65 -77.53L1545.65 -77.53" stroke="rgba(53, 53, 53, 1)" stroke-width="1.5"></path>
        <path d="M1545.65 -77.53L1575.47 108.99" stroke="rgba(53, 53, 53, 1)" stroke-width="1.5"></path>
        <path d="M1545.65 -77.53L1409.49 101.32" stroke="rgba(53, 53, 53, 1)" stroke-width="1.5"></path>
        <path d="M1575.47 108.99L1575.47 108.99" stroke="rgba(53, 53, 53, 1)" stroke-width="1.5"></path>
        <path d="M1575.47 108.99L1574.24 221.35" stroke="rgba(53, 53, 53, 1)" stroke-width="1.5"></path>
        <path d="M1574.24 221.35L1574.24 221.35" stroke="rgba(53, 53, 53, 1)" stroke-width="1.5"></path>
        <path d="M1574.24 221.35L1592.64 339.23" stroke="rgba(53, 53, 53, 1)" stroke-width="1.5"></path>
        <path d="M1574.24 221.35L1427.54 354.89" stroke="rgba(53, 53, 53, 1)" stroke-width="1.5"></path>
        <path d="M1574.24 221.35L1409.49 101.32" stroke="rgba(53, 53, 53, 1)" stroke-width="1.5"></path>
        <path d="M1592.64 339.23L1592.64 339.23" stroke="rgba(53, 53, 53, 1)" stroke-width="1.5"></path>
        <path d="M1592.64 339.23L1556.91 498.38" stroke="rgba(53, 53, 53, 1)" stroke-width="1.5"></path>
        <path d="M1592.64 339.23L1427.54 354.89" stroke="rgba(53, 53, 53, 1)" stroke-width="1.5"></path>
        <path d="M1592.64 339.23L1457.4 215.08" stroke="rgba(53, 53, 53, 1)" stroke-width="1.5"></path>
        <path d="M1556.91 498.38L1556.91 498.38" stroke="rgba(53, 53, 53, 1)" stroke-width="1.5"></path>
        <path d="M1556.91 498.38L1547.41 655.96" stroke="rgba(53, 53, 53, 1)" stroke-width="1.5"></path>
        <path d="M1556.91 498.38L1427.54 354.89" stroke="rgba(53, 53, 53, 1)" stroke-width="1.5"></path>
        <path d="M1547.41 655.96L1547.41 655.96" stroke="rgba(53, 53, 53, 1)" stroke-width="1.5"></path>
        <path d="M1547.41 655.96L1288.55 536.23" stroke="rgba(53, 53, 53, 1)" stroke-width="1.5"></path>
        <circle r="5" cx="-41.42" cy="342.4" fill="rgba(53, 53, 53, 1)"></circle>
        <circle r="5" cx="-59.9" cy="494.57" fill="rgba(53, 53, 53, 1)"></circle>
        <circle r="5" cx="-104.49" cy="688.35" fill="rgba(53, 53, 53, 1)"></circle>
        <circle r="5" cx="59.38" cy="377.54" fill="rgba(53, 53, 53, 1)"></circle>
        <circle r="5" cx="81.09" cy="550.11" fill="rgba(53, 53, 53, 1)"></circle>
        <circle r="5" cx="80.25" cy="680.19" fill="rgba(53, 53, 53, 1)"></circle>
        <circle r="5" cx="206.48" cy="404.58" fill="rgba(53, 53, 53, 1)"></circle>
        <circle r="5" cx="237.08" cy="489.72" fill="rgba(53, 53, 53, 1)"></circle>
        <circle r="5" cx="226.18" cy="638.97" fill="rgba(53, 53, 53, 1)"></circle>
        <circle r="5" cx="353.6" cy="393.85" fill="rgba(53, 53, 53, 1)"></circle>
        <circle r="5" cx="377.78" cy="502" fill="rgba(53, 53, 53, 1)"></circle>
        <circle r="5" cx="389.82" cy="679.17" fill="rgba(53, 53, 53, 1)"></circle>
        <circle r="5" cx="507.22" cy="349.43" fill="rgba(53, 53, 53, 1)"></circle>
        <circle r="5" cx="491.52" cy="527.69" fill="rgba(53, 53, 53, 1)"></circle>
        <circle r="5" cx="536.12" cy="650.67" fill="rgba(53, 53, 53, 1)"></circle>
        <circle r="5" cx="638.97" cy="259.83" fill="rgba(53, 53, 53, 1)"></circle>
        <circle r="5" cx="640.55" cy="396.33" fill="rgba(53, 53, 53, 1)"></circle>
        <circle r="5" cx="682.2" cy="517.18" fill="rgba(53, 53, 53, 1)"></circle>
        <circle r="5" cx="691.28" cy="661.21" fill="rgba(53, 53, 53, 1)"></circle>
        <circle r="5" cx="849.64" cy="112.17" fill="rgba(53, 53, 53, 1)"></circle>
        <circle r="5" cx="797.1" cy="217.86" fill="rgba(53, 53, 53, 1)"></circle>
        <circle r="5" cx="802.93" cy="382.79" fill="rgba(53, 53, 53, 1)"></circle>
        <circle r="5" cx="819.07" cy="515.96" fill="rgba(53, 53, 53, 1)"></circle>
        <circle r="5" cx="808.93" cy="638.21" fill="rgba(53, 53, 53, 1)"></circle>
        <circle r="5" cx="979.19" cy="58.82" fill="rgba(53, 53, 53, 1)"></circle>
        <circle r="5" cx="968.86" cy="247.5" fill="rgba(53, 53, 53, 1)"></circle>
        <circle r="5" cx="984.59" cy="398.29" fill="rgba(53, 53, 53, 1)"></circle>
        <circle r="5" cx="944.34" cy="542.36" fill="rgba(53, 53, 53, 1)"></circle>
        <circle r="5" cx="985.09" cy="678.55" fill="rgba(53, 53, 53, 1)"></circle>
        <circle r="5" cx="1137.15" cy="-70.93" fill="rgba(53, 53, 53, 1)"></circle>
        <circle r="5" cx="1098.83" cy="47.08" fill="rgba(53, 53, 53, 1)"></circle>
        <circle r="5" cx="1143.59" cy="197.87" fill="rgba(53, 53, 53, 1)"></circle>
        <circle r="5" cx="1088.9" cy="344.6" fill="rgba(53, 53, 53, 1)"></circle>
        <circle r="5" cx="1154.06" cy="493.39" fill="rgba(53, 53, 53, 1)"></circle>
        <circle r="5" cx="1121.49" cy="658.27" fill="rgba(53, 53, 53, 1)"></circle>
        <circle r="5" cx="1294.66" cy="-60.34" fill="rgba(53, 53, 53, 1)"></circle>
        <circle r="5" cx="1244.59" cy="43.17" fill="rgba(53, 53, 53, 1)"></circle>
        <circle r="5" cx="1253.36" cy="203" fill="rgba(53, 53, 53, 1)"></circle>
        <circle r="5" cx="1309.38" cy="359.19" fill="rgba(53, 53, 53, 1)"></circle>
        <circle r="5" cx="1288.55" cy="536.23" fill="rgba(53, 53, 53, 1)"></circle>
        <circle r="5" cx="1255.18" cy="680.86" fill="rgba(53, 53, 53, 1)"></circle>
        <circle r="5" cx="1430.74" cy="-54.41" fill="rgba(53, 53, 53, 1)"></circle>
        <circle r="5" cx="1409.49" cy="101.32" fill="rgba(53, 53, 53, 1)"></circle>
        <circle r="5" cx="1457.4" cy="215.08" fill="rgba(53, 53, 53, 1)"></circle>
        <circle r="5" cx="1427.54" cy="354.89" fill="rgba(53, 53, 53, 1)"></circle>
        <circle r="5" cx="1398.36" cy="550.11" fill="rgba(53, 53, 53, 1)"></circle>
        <circle r="5" cx="1440.96" cy="671.26" fill="rgba(53, 53, 53, 1)"></circle>
        <circle r="5" cx="1545.65" cy="-77.53" fill="rgba(53, 53, 53, 1)"></circle>
        <circle r="5" cx="1575.47" cy="108.99" fill="rgba(53, 53, 53, 1)"></circle>
        <circle r="5" cx="1574.24" cy="221.35" fill="rgba(53, 53, 53, 1)"></circle>
        <circle r="5" cx="1592.64" cy="339.23" fill="rgba(53, 53, 53, 1)"></circle>
        <circle r="5" cx="1556.91" cy="498.38" fill="rgba(53, 53, 53, 1)"></circle>
        <circle r="5" cx="1547.41" cy="655.96" fill="rgba(53, 53, 53, 1)"></circle>
        <path d="M520.23 703.34L520.23 703.34" stroke="hsl(218.60000000000002, 100%, 65%)" stroke-width="1.5"></path>
        <path d="M520.23 703.34L650.52 679.6" stroke="hsl(218.60000000000002, 100%, 65%)" stroke-width="1.5"></path>
        <path d="M520.23 703.34L389.11 656.49" stroke="hsl(218.60000000000002, 100%, 65%)" stroke-width="1.5"></path>
        <path d="M520.23 703.34L491.61 540.85" stroke="hsl(218.60000000000002, 100%, 65%)" stroke-width="1.5"></path>
        <path d="M520.23 703.34L402.22 495.58" stroke="hsl(218.60000000000002, 100%, 65%)" stroke-width="1.5"></path>
        <path d="M520.23 703.34L686.52 507.2" stroke="hsl(218.60000000000002, 100%, 65%)" stroke-width="1.5"></path>
        <path d="M945.95 509.66L945.95 509.66" stroke="hsl(218.60000000000002, 100%, 65%)" stroke-width="1.5"></path>
        <path d="M945.95 509.66L811.61 533.05" stroke="hsl(218.60000000000002, 100%, 65%)" stroke-width="1.5"></path>
        <path d="M945.95 509.66L982.2 373.51" stroke="hsl(218.60000000000002, 100%, 65%)" stroke-width="1.5"></path>
        <path d="M955.46 679.97L955.46 679.97" stroke="hsl(218.60000000000002, 100%, 65%)" stroke-width="1.5"></path>
        <path d="M955.46 679.97L1117.96 702.89" stroke="hsl(218.60000000000002, 100%, 65%)" stroke-width="1.5"></path>
        <path d="M955.46 679.97L791.18 709.9" stroke="hsl(218.60000000000002, 100%, 65%)" stroke-width="1.5"></path>
        <path d="M955.46 679.97L945.95 509.66" stroke="hsl(218.60000000000002, 100%, 65%)" stroke-width="1.5"></path>
        <path d="M1241.76 -91.53L1241.76 -91.53" stroke="hsl(218.60000000000002, 100%, 65%)" stroke-width="1.5"></path>
        <path d="M1241.76 -91.53L1305.9 71.43" stroke="hsl(218.60000000000002, 100%, 65%)" stroke-width="1.5"></path>
        <path d="M1241.76 -91.53L1435.73 -52.91" stroke="hsl(218.60000000000002, 100%, 65%)" stroke-width="1.5"></path>
        <path d="M1298.58 250.97L1298.58 250.97" stroke="hsl(218.60000000000002, 100%, 65%)" stroke-width="1.5"></path>
        <path d="M1298.58 250.97L1261.04 338.82" stroke="hsl(218.60000000000002, 100%, 65%)" stroke-width="1.5"></path>
        <path d="M1298.58 250.97L1399.98 222.29" stroke="hsl(218.60000000000002, 100%, 65%)" stroke-width="1.5"></path>
        <path d="M1420.76 512.76L1420.76 512.76" stroke="hsl(218.60000000000002, 100%, 65%)" stroke-width="1.5"></path>
        <path d="M1420.76 512.76L1280.49 535.25" stroke="hsl(218.60000000000002, 100%, 65%)" stroke-width="1.5"></path>
        <path d="M1420.76 512.76L1411.65 361.52" stroke="hsl(218.60000000000002, 100%, 65%)" stroke-width="1.5"></path>
        <path d="M1420.76 512.76L1574.04 558.8" stroke="hsl(218.60000000000002, 100%, 65%)" stroke-width="1.5"></path>
        <path d="M1420.76 512.76L1431.56 694.31" stroke="hsl(218.60000000000002, 100%, 65%)" stroke-width="1.5"></path>
        <path d="M1420.76 512.76L1587.48 404.09" stroke="hsl(218.60000000000002, 100%, 65%)" stroke-width="1.5"></path>
        <path d="M1420.76 512.76L1289.21 663.76" stroke="hsl(218.60000000000002, 100%, 65%)" stroke-width="1.5"></path>
        <path d="M1587.48 404.09L1587.48 404.09" stroke="hsl(218.60000000000002, 100%, 65%)" stroke-width="1.5"></path>
        <path d="M1587.48 404.09L1574.04 558.8" stroke="hsl(218.60000000000002, 100%, 65%)" stroke-width="1.5"></path>
        <path d="M1587.48 404.09L1411.65 361.52" stroke="hsl(218.60000000000002, 100%, 65%)" stroke-width="1.5"></path>
        <path d="M1587.48 404.09L1566.37 217.74" stroke="hsl(218.60000000000002, 100%, 65%)" stroke-width="1.5"></path>
        <path d="M1587.48 404.09L1399.98 222.29" stroke="hsl(218.60000000000002, 100%, 65%)" stroke-width="1.5"></path>
        <path d="M-108.07 552.39L-108.07 552.39" stroke="hsl(218.60000000000002, 100%, 65%)" stroke-width="1.5"></path>
        <path d="M-108.07 552.39L-91.95 670.83" stroke="hsl(218.60000000000002, 100%, 65%)" stroke-width="1.5"></path>
        <path d="M-108.07 552.39L42.43 542.58" stroke="hsl(218.60000000000002, 100%, 65%)" stroke-width="1.5"></path>
        <path d="M-108.07 552.39L107.74 663.63" stroke="hsl(218.60000000000002, 100%, 65%)" stroke-width="1.5"></path>
        <path d="M-108.07 552.39L224.22 493.79" stroke="hsl(218.60000000000002, 100%, 65%)" stroke-width="1.5"></path>
        <path d="M-108.07 552.39L250.62 702.14" stroke="hsl(218.60000000000002, 100%, 65%)" stroke-width="1.5"></path>
        <path d="M-108.07 552.39L389.11 656.49" stroke="hsl(218.60000000000002, 100%, 65%)" stroke-width="1.5"></path>
        <path d="M-91.95 670.83L-91.95 670.83" stroke="hsl(218.60000000000002, 100%, 65%)" stroke-width="1.5"></path>
        <path d="M-91.95 670.83L42.43 542.58" stroke="hsl(218.60000000000002, 100%, 65%)" stroke-width="1.5"></path>
        <path d="M-91.95 670.83L107.74 663.63" stroke="hsl(218.60000000000002, 100%, 65%)" stroke-width="1.5"></path>
        <path d="M42.43 542.58L42.43 542.58" stroke="hsl(218.60000000000002, 100%, 65%)" stroke-width="1.5"></path>
        <path d="M42.43 542.58L107.74 663.63" stroke="hsl(218.60000000000002, 100%, 65%)" stroke-width="1.5"></path>
        <path d="M42.43 542.58L224.22 493.79" stroke="hsl(218.60000000000002, 100%, 65%)" stroke-width="1.5"></path>
        <path d="M42.43 542.58L250.62 702.14" stroke="hsl(218.60000000000002, 100%, 65%)" stroke-width="1.5"></path>
        <path d="M107.74 663.63L107.74 663.63" stroke="hsl(218.60000000000002, 100%, 65%)" stroke-width="1.5"></path>
        <path d="M107.74 663.63L250.62 702.14" stroke="hsl(218.60000000000002, 100%, 65%)" stroke-width="1.5"></path>
        <path d="M224.22 493.79L224.22 493.79" stroke="hsl(218.60000000000002, 100%, 65%)" stroke-width="1.5"></path>
        <path d="M224.22 493.79L402.22 495.58" stroke="hsl(218.60000000000002, 100%, 65%)" stroke-width="1.5"></path>
        <path d="M250.62 702.14L250.62 702.14" stroke="hsl(218.60000000000002, 100%, 65%)" stroke-width="1.5"></path>
        <path d="M250.62 702.14L389.11 656.49" stroke="hsl(218.60000000000002, 100%, 65%)" stroke-width="1.5"></path>
        <path d="M402.22 495.58L402.22 495.58" stroke="hsl(218.60000000000002, 100%, 65%)" stroke-width="1.5"></path>
        <path d="M402.22 495.58L491.61 540.85" stroke="hsl(218.60000000000002, 100%, 65%)" stroke-width="1.5"></path>
        <path d="M402.22 495.58L389.11 656.49" stroke="hsl(218.60000000000002, 100%, 65%)" stroke-width="1.5"></path>
        <path d="M389.11 656.49L389.11 656.49" stroke="hsl(218.60000000000002, 100%, 65%)" stroke-width="1.5"></path>
        <path d="M389.11 656.49L491.61 540.85" stroke="hsl(218.60000000000002, 100%, 65%)" stroke-width="1.5"></path>
        <path d="M491.61 540.85L491.61 540.85" stroke="hsl(218.60000000000002, 100%, 65%)" stroke-width="1.5"></path>
        <path d="M674.66 390.12L674.66 390.12" stroke="hsl(218.60000000000002, 100%, 65%)" stroke-width="1.5"></path>
        <path d="M674.66 390.12L686.52 507.2" stroke="hsl(218.60000000000002, 100%, 65%)" stroke-width="1.5"></path>
        <path d="M674.66 390.12L857.22 399.48" stroke="hsl(218.60000000000002, 100%, 65%)" stroke-width="1.5"></path>
        <path d="M674.66 390.12L811.61 533.05" stroke="hsl(218.60000000000002, 100%, 65%)" stroke-width="1.5"></path>
        <path d="M674.66 390.12L491.61 540.85" stroke="hsl(218.60000000000002, 100%, 65%)" stroke-width="1.5"></path>
        <path d="M674.66 390.12L650.52 679.6" stroke="hsl(218.60000000000002, 100%, 65%)" stroke-width="1.5"></path>
        <path d="M686.52 507.2L686.52 507.2" stroke="hsl(218.60000000000002, 100%, 65%)" stroke-width="1.5"></path>
        <path d="M686.52 507.2L811.61 533.05" stroke="hsl(218.60000000000002, 100%, 65%)" stroke-width="1.5"></path>
        <path d="M650.52 679.6L650.52 679.6" stroke="hsl(218.60000000000002, 100%, 65%)" stroke-width="1.5"></path>
        <path d="M650.52 679.6L791.18 709.9" stroke="hsl(218.60000000000002, 100%, 65%)" stroke-width="1.5"></path>
        <path d="M650.52 679.6L686.52 507.2" stroke="hsl(218.60000000000002, 100%, 65%)" stroke-width="1.5"></path>
        <path d="M857.22 399.48L857.22 399.48" stroke="hsl(218.60000000000002, 100%, 65%)" stroke-width="1.5"></path>
        <path d="M857.22 399.48L982.2 373.51" stroke="hsl(218.60000000000002, 100%, 65%)" stroke-width="1.5"></path>
        <path d="M857.22 399.48L811.61 533.05" stroke="hsl(218.60000000000002, 100%, 65%)" stroke-width="1.5"></path>
        <path d="M857.22 399.48L945.95 509.66" stroke="hsl(218.60000000000002, 100%, 65%)" stroke-width="1.5"></path>
        <path d="M811.61 533.05L811.61 533.05" stroke="hsl(218.60000000000002, 100%, 65%)" stroke-width="1.5"></path>
        <path d="M811.61 533.05L791.18 709.9" stroke="hsl(218.60000000000002, 100%, 65%)" stroke-width="1.5"></path>
        <path d="M791.18 709.9L791.18 709.9" stroke="hsl(218.60000000000002, 100%, 65%)" stroke-width="1.5"></path>
        <path d="M791.18 709.9L686.52 507.2" stroke="hsl(218.60000000000002, 100%, 65%)" stroke-width="1.5"></path>
        <path d="M972.69 244.15L972.69 244.15" stroke="hsl(218.60000000000002, 100%, 65%)" stroke-width="1.5"></path>
        <path d="M972.69 244.15L982.2 373.51" stroke="hsl(218.60000000000002, 100%, 65%)" stroke-width="1.5"></path>
        <path d="M972.69 244.15L1144.01 222.87" stroke="hsl(218.60000000000002, 100%, 65%)" stroke-width="1.5"></path>
        <path d="M982.2 373.51L982.2 373.51" stroke="hsl(218.60000000000002, 100%, 65%)" stroke-width="1.5"></path>
        <path d="M982.2 373.51L1124.17 411.52" stroke="hsl(218.60000000000002, 100%, 65%)" stroke-width="1.5"></path>
        <path d="M982.2 373.51L1132.49 500.46" stroke="hsl(218.60000000000002, 100%, 65%)" stroke-width="1.5"></path>
        <path d="M1144.01 222.87L1144.01 222.87" stroke="hsl(218.60000000000002, 100%, 65%)" stroke-width="1.5"></path>
        <path d="M1144.01 222.87L1298.58 250.97" stroke="hsl(218.60000000000002, 100%, 65%)" stroke-width="1.5"></path>
        <path d="M1144.01 222.87L1261.04 338.82" stroke="hsl(218.60000000000002, 100%, 65%)" stroke-width="1.5"></path>
        <path d="M1124.17 411.52L1124.17 411.52" stroke="hsl(218.60000000000002, 100%, 65%)" stroke-width="1.5"></path>
        <path d="M1124.17 411.52L1132.49 500.46" stroke="hsl(218.60000000000002, 100%, 65%)" stroke-width="1.5"></path>
        <path d="M1124.17 411.52L1261.04 338.82" stroke="hsl(218.60000000000002, 100%, 65%)" stroke-width="1.5"></path>
        <path d="M1124.17 411.52L1144.01 222.87" stroke="hsl(218.60000000000002, 100%, 65%)" stroke-width="1.5"></path>
        <path d="M1124.17 411.52L1280.49 535.25" stroke="hsl(218.60000000000002, 100%, 65%)" stroke-width="1.5"></path>
        <path d="M1132.49 500.46L1132.49 500.46" stroke="hsl(218.60000000000002, 100%, 65%)" stroke-width="1.5"></path>
        <path d="M1132.49 500.46L1280.49 535.25" stroke="hsl(218.60000000000002, 100%, 65%)" stroke-width="1.5"></path>
        <path d="M1132.49 500.46L945.95 509.66" stroke="hsl(218.60000000000002, 100%, 65%)" stroke-width="1.5"></path>
        <path d="M1132.49 500.46L1117.96 702.89" stroke="hsl(218.60000000000002, 100%, 65%)" stroke-width="1.5"></path>
        <path d="M1117.96 702.89L1117.96 702.89" stroke="hsl(218.60000000000002, 100%, 65%)" stroke-width="1.5"></path>
        <path d="M1117.96 702.89L1289.21 663.76" stroke="hsl(218.60000000000002, 100%, 65%)" stroke-width="1.5"></path>
        <path d="M1305.9 71.43L1305.9 71.43" stroke="hsl(218.60000000000002, 100%, 65%)" stroke-width="1.5"></path>
        <path d="M1305.9 71.43L1413.61 104.78" stroke="hsl(218.60000000000002, 100%, 65%)" stroke-width="1.5"></path>
        <path d="M1305.9 71.43L1399.98 222.29" stroke="hsl(218.60000000000002, 100%, 65%)" stroke-width="1.5"></path>
        <path d="M1305.9 71.43L1298.58 250.97" stroke="hsl(218.60000000000002, 100%, 65%)" stroke-width="1.5"></path>
        <path d="M1305.9 71.43L1435.73 -52.91" stroke="hsl(218.60000000000002, 100%, 65%)" stroke-width="1.5"></path>
        <path d="M1305.9 71.43L1144.01 222.87" stroke="hsl(218.60000000000002, 100%, 65%)" stroke-width="1.5"></path>
        <path d="M1261.04 338.82L1261.04 338.82" stroke="hsl(218.60000000000002, 100%, 65%)" stroke-width="1.5"></path>
        <path d="M1261.04 338.82L1411.65 361.52" stroke="hsl(218.60000000000002, 100%, 65%)" stroke-width="1.5"></path>
        <path d="M1280.49 535.25L1280.49 535.25" stroke="hsl(218.60000000000002, 100%, 65%)" stroke-width="1.5"></path>
        <path d="M1280.49 535.25L1289.21 663.76" stroke="hsl(218.60000000000002, 100%, 65%)" stroke-width="1.5"></path>
        <path d="M1289.21 663.76L1289.21 663.76" stroke="hsl(218.60000000000002, 100%, 65%)" stroke-width="1.5"></path>
        <path d="M1289.21 663.76L1431.56 694.31" stroke="hsl(218.60000000000002, 100%, 65%)" stroke-width="1.5"></path>
        <path d="M1289.21 663.76L1132.49 500.46" stroke="hsl(218.60000000000002, 100%, 65%)" stroke-width="1.5"></path>
        <path d="M1435.73 -52.91L1435.73 -52.91" stroke="hsl(218.60000000000002, 100%, 65%)" stroke-width="1.5"></path>
        <path d="M1435.73 -52.91L1568.43 -38.26" stroke="hsl(218.60000000000002, 100%, 65%)" stroke-width="1.5"></path>
        <path d="M1435.73 -52.91L1413.61 104.78" stroke="hsl(218.60000000000002, 100%, 65%)" stroke-width="1.5"></path>
        <path d="M1435.73 -52.91L1611.13 48.92" stroke="hsl(218.60000000000002, 100%, 65%)" stroke-width="1.5"></path>
        <path d="M1413.61 104.78L1413.61 104.78" stroke="hsl(218.60000000000002, 100%, 65%)" stroke-width="1.5"></path>
        <path d="M1413.61 104.78L1399.98 222.29" stroke="hsl(218.60000000000002, 100%, 65%)" stroke-width="1.5"></path>
        <path d="M1413.61 104.78L1298.58 250.97" stroke="hsl(218.60000000000002, 100%, 65%)" stroke-width="1.5"></path>
        <path d="M1413.61 104.78L1566.37 217.74" stroke="hsl(218.60000000000002, 100%, 65%)" stroke-width="1.5"></path>
        <path d="M1413.61 104.78L1611.13 48.92" stroke="hsl(218.60000000000002, 100%, 65%)" stroke-width="1.5"></path>
        <path d="M1399.98 222.29L1399.98 222.29" stroke="hsl(218.60000000000002, 100%, 65%)" stroke-width="1.5"></path>
        <path d="M1399.98 222.29L1411.65 361.52" stroke="hsl(218.60000000000002, 100%, 65%)" stroke-width="1.5"></path>
        <path d="M1411.65 361.52L1411.65 361.52" stroke="hsl(218.60000000000002, 100%, 65%)" stroke-width="1.5"></path>
        <path d="M1431.56 694.31L1431.56 694.31" stroke="hsl(218.60000000000002, 100%, 65%)" stroke-width="1.5"></path>
        <path d="M1431.56 694.31L1574.04 558.8" stroke="hsl(218.60000000000002, 100%, 65%)" stroke-width="1.5"></path>
        <path d="M1431.56 694.31L1280.49 535.25" stroke="hsl(218.60000000000002, 100%, 65%)" stroke-width="1.5"></path>
        <path d="M1568.43 -38.26L1568.43 -38.26" stroke="hsl(218.60000000000002, 100%, 65%)" stroke-width="1.5"></path>
        <path d="M1568.43 -38.26L1611.13 48.92" stroke="hsl(218.60000000000002, 100%, 65%)" stroke-width="1.5"></path>
        <path d="M1568.43 -38.26L1413.61 104.78" stroke="hsl(218.60000000000002, 100%, 65%)" stroke-width="1.5"></path>
        <path d="M1568.43 -38.26L1566.37 217.74" stroke="hsl(218.60000000000002, 100%, 65%)" stroke-width="1.5"></path>
        <path d="M1611.13 48.92L1611.13 48.92" stroke="hsl(218.60000000000002, 100%, 65%)" stroke-width="1.5"></path>
        <path d="M1611.13 48.92L1566.37 217.74" stroke="hsl(218.60000000000002, 100%, 65%)" stroke-width="1.5"></path>
        <path d="M1566.37 217.74L1566.37 217.74" stroke="hsl(218.60000000000002, 100%, 65%)" stroke-width="1.5"></path>
        <path d="M1566.37 217.74L1399.98 222.29" stroke="hsl(218.60000000000002, 100%, 65%)" stroke-width="1.5"></path>
        <path d="M1574.04 558.8L1574.04 558.8" stroke="hsl(218.60000000000002, 100%, 65%)" stroke-width="1.5"></path>
        <path d="M1574.04 558.8L1411.65 361.52" stroke="hsl(218.60000000000002, 100%, 65%)" stroke-width="1.5"></path>
        <path d="M1574.04 558.8L1280.49 535.25" stroke="hsl(218.60000000000002, 100%, 65%)" stroke-width="1.5"></path>
        <path d="M1574.04 558.8L1289.21 663.76" stroke="hsl(218.60000000000002, 100%, 65%)" stroke-width="1.5"></path>
        <circle r="25" cx="520.23" cy="703.34" fill="url(#SvgjsRadialGradient1695)"></circle>
        <circle r="25" cx="945.95" cy="509.66" fill="url(#SvgjsRadialGradient1695)"></circle>
        <circle r="25" cx="955.46" cy="679.97" fill="url(#SvgjsRadialGradient1695)"></circle>
        <circle r="25" cx="1241.76" cy="-91.53" fill="url(#SvgjsRadialGradient1695)"></circle>
        <circle r="25" cx="1298.58" cy="250.97" fill="url(#SvgjsRadialGradient1695)"></circle>
        <circle r="25" cx="1420.76" cy="512.76" fill="url(#SvgjsRadialGradient1695)"></circle>
        <circle r="25" cx="1587.48" cy="404.09" fill="url(#SvgjsRadialGradient1695)"></circle>
        <circle r="5" cx="-108.07" cy="552.39" fill="#80adff"></circle>
        <circle r="5" cx="-91.95" cy="670.83" fill="#80adff"></circle>
        <circle r="5" cx="42.43" cy="542.58" fill="#80adff"></circle>
        <circle r="5" cx="107.74" cy="663.63" fill="#80adff"></circle>
        <circle r="5" cx="224.22" cy="493.79" fill="#80adff"></circle>
        <circle r="5" cx="250.62" cy="702.14" fill="#80adff"></circle>
        <circle r="5" cx="402.22" cy="495.58" fill="#80adff"></circle>
        <circle r="5" cx="389.11" cy="656.49" fill="#80adff"></circle>
        <circle r="5" cx="491.61" cy="540.85" fill="#80adff"></circle>
        <circle r="5" cx="674.66" cy="390.12" fill="#80adff"></circle>
        <circle r="5" cx="686.52" cy="507.2" fill="#80adff"></circle>
        <circle r="5" cx="650.52" cy="679.6" fill="#80adff"></circle>
        <circle r="5" cx="857.22" cy="399.48" fill="#80adff"></circle>
        <circle r="5" cx="811.61" cy="533.05" fill="#80adff"></circle>
        <circle r="5" cx="791.18" cy="709.9" fill="#80adff"></circle>
        <circle r="5" cx="972.69" cy="244.15" fill="#80adff"></circle>
        <circle r="5" cx="982.2" cy="373.51" fill="#80adff"></circle>
        <circle r="5" cx="1144.01" cy="222.87" fill="#80adff"></circle>
        <circle r="5" cx="1124.17" cy="411.52" fill="#80adff"></circle>
        <circle r="5" cx="1132.49" cy="500.46" fill="#80adff"></circle>
        <circle r="5" cx="1117.96" cy="702.89" fill="#80adff"></circle>
        <circle r="5" cx="1305.9" cy="71.43" fill="#80adff"></circle>
        <circle r="5" cx="1261.04" cy="338.82" fill="#80adff"></circle>
        <circle r="5" cx="1280.49" cy="535.25" fill="#80adff"></circle>
        <circle r="5" cx="1289.21" cy="663.76" fill="#80adff"></circle>
        <circle r="5" cx="1435.73" cy="-52.91" fill="#80adff"></circle>
        <circle r="5" cx="1413.61" cy="104.78" fill="#80adff"></circle>
        <circle r="5" cx="1399.98" cy="222.29" fill="#80adff"></circle>
        <circle r="5" cx="1411.65" cy="361.52" fill="#80adff"></circle>
        <circle r="5" cx="1431.56" cy="694.31" fill="#80adff"></circle>
        <circle r="5" cx="1568.43" cy="-38.26" fill="#80adff"></circle>
        <circle r="5" cx="1611.13" cy="48.92" fill="#80adff"></circle>
        <circle r="5" cx="1566.37" cy="217.74" fill="#80adff"></circle>
        <circle r="5" cx="1574.04" cy="558.8" fill="#80adff"></circle>
    </g>
    <defs>
        <mask id="SvgjsMask1694">
            <rect width="1440" height="560" fill="#ffffff"></rect>
        </mask>
        <radialGradient id="SvgjsRadialGradient1695">
            <stop stop-color="#ffffff" offset="0.1"></stop>
            <stop stop-color="rgba(0, 91, 255, 1)" offset="0.2"></stop>
            <stop stop-color="rgba(0, 91, 255, 0)" offset="1"></stop>
        </radialGradient>
    </defs>
</svg>