<?xml version="1.0" encoding="utf-8"?>
<!-- Generator: Adobe Illustrator 26.4.1, SVG Export Plug-In . SVG Version: 6.00 Build 0)  -->
<svg version="1.1" id="Слой_1" xmlns="http://www.w3.org/2000/svg" xmlns:xlink="http://www.w3.org/1999/xlink" x="0px" y="0px"
	 viewBox="0 0 1135 442" style="enable-background:new 0 0 1135 442;" xml:space="preserve">
<rect style="fill:#353535;" width="1135" height="442"/>
<path style="fill:#4D4D4D;" d="M915,155H419c-12.7,0-23-10.3-23-23V50c0-12.7,10.3-23,23-23h496c12.7,0,23,10.3,23,23v82
	C938,144.7,927.7,155,915,155z"/>
<rect y="5" style="fill:#4D4D4D;" width="197" height="140"/>
<rect y="150" style="fill:#4D4D4D;" width="197" height="91"/>
<rect y="247" style="fill:#353535;" width="197" height="99"/>
<rect y="351" style="fill:#4D4D4D;" width="197" height="85"/>
<circle style="fill:#0000FF;" cx="98.5" cy="49.8" r="34.2"/>
<path style="fill:#CCCCCC;" d="M163,117H41c-6.1,0-11-4.9-11-11l0,0c0-6.1,4.9-11,11-11h122c6.1,0,11,4.9,11,11l0,0
	C174,112.1,169.1,117,163,117z"/>
<rect x="28.2" y="172" style="fill:none;" width="147.5" height="75"/>
<text transform="matrix(1 0 0 1 47.0269 188.7197)" style="fill:#FFFFFF; font-family:'Verdana'; font-size:22px;">Основная </text>
<text transform="matrix(1 0 0 1 30.2269 215.1197)" style="fill:#FFFFFF; font-family:'Verdana'; font-size:22px;">информация</text>
<rect x="39.5" y="384" style="fill:none;" width="125" height="64"/>
<text transform="matrix(1 0 0 1 41.6719 400.7197)" style="fill:#FFFFFF; font-family:'Verdana'; font-size:22px;">Настройки</text>
<text transform="matrix(1 0 0 1 24.5273 296.5)" style="fill:#FFFFFF; font-family:'Verdana'; font-size:22px;">Добавленные</text>
<text transform="matrix(1 0 0 1 74.3273 322.9)" style="fill:#FFFFFF; font-family:'Verdana'; font-size:22px;">боты</text>
<path style="fill:#0000FF;" d="M413.8,259.2H313.2c-5.1,0-9.2-4.1-9.2-9.2v-18c0-5.1,4.1-9.2,9.2-9.2h100.5c5.1,0,9.2,4.1,9.2,9.2
	v18C423,255.1,418.9,259.2,413.8,259.2z"/>
<path style="fill:#0000FF;" d="M710.2,140H609.8c-5.1,0-9.2-4.1-9.2-9.2v-15.3c0-5.1,4.1-9.2,9.2-9.2h100.5c5.1,0,9.2,4.1,9.2,9.2
	v15.3C719.5,135.9,715.4,140,710.2,140z"/>
<rect x="636" y="42.3" style="fill:#CCCCCC;" width="117" height="15"/>
<rect x="475" y="76" style="fill:#CCCCCC;" width="407" height="15"/>
<text transform="matrix(1 0 0 1 590.0703 54.9998)" style="fill:#FFFFFF; font-family:'ArialMT'; font-size:15px;">Имя - </text>
<text transform="matrix(1 0 0 1 448.5327 91)" style="fill:#FFFFFF; font-family:'ArialMT'; font-size:15px;">id - </text>
<rect x="614.5" y="117" style="fill:none;" width="91" height="23"/>
<text transform="matrix(1 0 0 1 615.5762 126.8799)" style="fill:#FFFFFF; font-family:'Verdana'; font-size:13px;">Удалить бота</text>
<rect x="318" y="235.5" style="fill:none;" width="91" height="23"/>
<text transform="matrix(1 0 0 1 318.2686 244.6201)" style="fill:#FFFFFF; font-family:'Verdana'; font-size:12px;">Добавить бота</text>
</svg>
