<?xml version="1.0" encoding="utf-8"?>
<!-- Generator: Adobe Illustrator 26.4.1, SVG Export Plug-In . SVG Version: 6.00 Build 0)  -->
<svg version="1.1" id="Слой_1" xmlns="http://www.w3.org/2000/svg" xmlns:xlink="http://www.w3.org/1999/xlink" x="0px" y="0px"
	 viewBox="0 0 1131.789 442.75" style="enable-background:new 0 0 1131.789 442.75;" xml:space="preserve">
<rect style="fill:#353535;" width="1135" height="443.5"/>
<rect x="197" y="176.5" style="fill:#353535;" width="197" height="85"/>
<rect x="197" y="89" style="fill:#353535;" width="197" height="85"/>
<rect x="197" y="1.5" style="fill:#4D4D4D;" width="197" height="85"/>
<rect x="394" y="1.5" style="fill:#4D4D4D;" width="740.043" height="442"/>
<rect style="fill:#353535;" width="197" height="85"/>
<path style="fill:#666666;" d="M141.574,54H32.085c-5.523,0-10-4.477-10-10v0c0-5.523,4.477-10,10-10h109.489
	c5.523,0,10,4.477,10,10v0C151.574,49.523,147.097,54,141.574,54z"/>
<rect x="570.818" y="172.187" style="fill:none;" width="91" height="23"/>
<text transform="matrix(1 0 0 1 593.7325 181.3076)" style="fill:#FFFFFF; font-family:'Verdana'; font-size:12px;">Ответы</text>
<circle style="fill:#0000FF;" cx="229.223" cy="220.5" r="25.313"/>
<rect y="89" style="fill:#4D4D4D;" width="197" height="85"/>
<path style="fill:#666666;" d="M127.761,141.5H32.085c-5.523,0-10-4.477-10-10v0c0-5.523,4.477-10,10-10h95.676
	c5.523,0,10,4.477,10,10v0C137.761,137.023,133.283,141.5,127.761,141.5z"/>
<circle style="fill:#0000FF;" cx="229.223" cy="42.5" r="25.313"/>
<rect y="178" style="fill:#353535;" width="197" height="85"/>
<path style="fill:#666666;" d="M158.936,231H32.085c-5.523,0-10-4.477-10-10v0c0-5.523,4.477-10,10-10h126.851
	c5.523,0,10,4.477,10,10v0C168.936,226.523,164.459,231,158.936,231z"/>
<circle style="fill:#0000FF;" cx="229.223" cy="131.5" r="25.313"/>
<path style="fill:#5B5B5B;" d="M376.963,163.219H272.356c-5.109,0-9.25-4.141-9.25-9.25v-15.25c0-5.109,4.141-9.25,9.25-9.25
	h104.606c5.109,0,9.25,4.141,9.25,9.25v15.25C386.213,159.077,382.071,163.219,376.963,163.219z"/>
<path style="fill:#666666;" d="M365.838,118.969h-92.731c-5.523,0-10-4.477-10-10v0c0-5.523,4.477-10,10-10h92.731
	c5.523,0,10,4.477,10,10v0C375.838,114.492,371.361,118.969,365.838,118.969z"/>
<path style="fill:#5B5B5B;" d="M376.963,247.875H272.356c-5.109,0-9.25-4.141-9.25-9.25v-15.25c0-5.109,4.141-9.25,9.25-9.25
	h104.606c5.109,0,9.25,4.141,9.25,9.25v15.25C386.213,243.734,382.071,247.875,376.963,247.875z"/>
<path style="fill:#5B5B5B;" d="M376.963,77.75H272.356c-5.109,0-9.25-4.141-9.25-9.25V53.25c0-5.109,4.141-9.25,9.25-9.25h104.606
	c5.109,0,9.25,4.141,9.25,9.25V68.5C386.213,73.609,382.071,77.75,376.963,77.75z"/>
<path style="fill:#666666;" d="M365.838,205.25h-92.731c-5.523,0-10-4.477-10-10v0c0-5.523,4.477-10,10-10h92.731
	c5.523,0,10,4.477,10,10v0C375.838,200.773,371.361,205.25,365.838,205.25z"/>
<path style="fill:#666666;" d="M364.366,32.75h-92.731c-5.523,0-10-4.477-10-10v0c0-5.523,4.477-10,10-10h92.731
	c5.523,0,10,4.477,10,10v0C374.366,28.273,369.889,32.75,364.366,32.75z"/>
<circle style="fill:#0000FF;" cx="685.319" cy="60.875" r="39.973"/>
<path style="fill:#666666;" d="M839,37.187h-92.731c-5.523,0-10-4.477-10-10v0c0-5.523,4.477-10,10-10H839c5.523,0,10,4.477,10,10v0
	C849,32.71,844.523,37.187,839,37.187z"/>
<path style="fill:#5B5B5B;" d="M936.75,129.469H745.519c-5.109,0-9.25-4.141-9.25-9.25V60.187c0-5.109,4.141-9.25,9.25-9.25H936.75
	c5.109,0,9.25,4.141,9.25,9.25v60.031C946,125.327,941.859,129.469,936.75,129.469z"/>
<rect x="884.434" y="172.187" style="fill:none;" width="91" height="23"/>
<text transform="matrix(1 0 0 1 888.3821 181.3076)" style="fill:#FFFFFF; font-family:'Verdana'; font-size:12px;">Комментарии</text>
<path style="fill:#3F3F3F;" d="M739.201,373.723H493.434c-7.962,0-14.416-6.454-14.416-14.416V215.07
	c0-7.962,6.454-14.416,14.416-14.416h245.767c7.962,0,14.416,6.454,14.416,14.416v144.237
	C753.617,367.269,747.163,373.723,739.201,373.723z"/>
<path style="fill:#3F3F3F;" d="M1052.817,373.723H807.05c-7.962,0-14.416-6.454-14.416-14.416V215.07
	c0-7.962,6.454-14.416,14.416-14.416h245.767c7.962,0,14.416,6.454,14.416,14.416v144.237
	C1067.233,367.269,1060.779,373.723,1052.817,373.723z"/>
<path style="fill:#5B5B5B;" d="M619.803,252.75H515.197c-5.109,0-9.25-4.141-9.25-9.25v-15.25c0-5.109,4.141-9.25,9.25-9.25h104.606
	c5.109,0,9.25,4.141,9.25,9.25v15.25C629.053,248.609,624.912,252.75,619.803,252.75z"/>
<path style="fill:#706F6F;" d="M557.5,245.875h-36.366c-5.523,0-10-4.477-10-10v0c0-5.523,4.477-10,10-10H557.5
	c5.523,0,10,4.477,10,10v0C567.5,241.398,563.023,245.875,557.5,245.875z"/>
<path style="fill:#5B5B5B;" d="M1011.686,287.189H832.131c-5.109,0-9.25-4.141-9.25-9.25v-54.564c0-5.109,4.141-9.25,9.25-9.25
	h179.556c5.109,0,9.25,4.141,9.25,9.25v54.564C1020.936,283.047,1016.795,287.189,1011.686,287.189z"/>
<path style="fill:#706F6F;" d="M1000.213,279.511H838.068c-5.523,0-10-4.477-10-10V231c0-5.523,4.477-10,10-10h162.145
	c5.523,0,10,4.477,10,10v38.511C1010.213,275.033,1005.736,279.511,1000.213,279.511z"/>
<path style="fill:#CCCCCC;" d="M682.5,431.981H485.795c-3.743,0-6.777-3.034-6.777-6.777v-17.941c0-3.743,3.034-6.777,6.777-6.777
	H682.5c3.743,0,6.777,3.034,6.777,6.777v17.941C689.277,428.947,686.243,431.981,682.5,431.981z"/>
<path style="fill:#CCCCCC;" d="M996.116,431.981H799.411c-3.743,0-6.777-3.034-6.777-6.777v-17.941c0-3.743,3.034-6.777,6.777-6.777
	h196.705c3.743,0,6.777,3.034,6.777,6.777v17.941C1002.893,428.947,999.859,431.981,996.116,431.981z"/>
<path style="fill:#0000FF;" d="M754.771,431.981h-53.036c-5.109,0-9.25-4.141-9.25-9.25v-12.995c0-5.109,4.141-9.25,9.25-9.25
	h53.036c5.109,0,9.25,4.141,9.25,9.25v12.995C764.021,427.84,759.88,431.981,754.771,431.981z"/>
<path style="fill:#0000FF;" d="M1072.499,431.981h-53.036c-5.109,0-9.25-4.141-9.25-9.25v-12.995c0-5.109,4.141-9.25,9.25-9.25
	h53.036c5.109,0,9.25,4.141,9.25,9.25v12.995C1081.749,427.84,1077.607,431.981,1072.499,431.981z"/>
<text transform="matrix(1 0 0 1 488.3779 421.0639)" style="fill:#4D4D4D; font-family:'Verdana'; font-size:10px;">Напишите сообщение...</text>
<text transform="matrix(1 0 0 1 798.3306 421.0639)" style="fill:#4D4D4D; font-family:'Verdana'; font-size:10px;">Напишите сообщение...</text>
<rect x="682.753" y="412.787" style="fill:none;" width="91" height="10.517"/>
<text transform="matrix(1 0 0 1 702.5311 421.1472)" style="fill:#FFFFFF; font-family:'Verdana'; font-size:11px;">Ответить</text>
<rect x="1000.481" y="405.717" style="fill:none;" width="91" height="29.161"/>
<text transform="matrix(1 0 0 1 1021.8254 413.3181)"><tspan x="0" y="0" style="fill:#FFFFFF; font-family:'Verdana'; font-size:10px;">Написать </tspan><tspan x="-9.966" y="12" style="fill:#FFFFFF; font-family:'Verdana'; font-size:10px;">комментарий</tspan></text>
</svg>
