<?xml version="1.0" encoding="UTF-8"?>
<!DOCTYPE svg  PUBLIC '-//W3C//DTD SVG 1.0//EN'  'http://www.w3.org/TR/2001/REC-SVG-20010904/DTD/svg10.dtd' [
	<!ENTITY ns_extend "http://ns.adobe.com/Extensibility/1.0/">
	<!ENTITY ns_ai "http://ns.adobe.com/AdobeIllustrator/10.0/">
	<!ENTITY ns_graphs "http://ns.adobe.com/Graphs/1.0/">
	<!ENTITY ns_vars "http://ns.adobe.com/Variables/1.0/">
	<!ENTITY ns_imrep "http://ns.adobe.com/ImageReplacement/1.0/">
	<!ENTITY ns_sfw "http://ns.adobe.com/SaveForWeb/1.0/">
	<!ENTITY ns_custom "http://ns.adobe.com/GenericCustomNamespace/1.0/">
	<!ENTITY ns_adobe_xpath "http://ns.adobe.com/XPath/1.0/">
]>
<svg enable-background="new 0 0 1135 439.7" version="1.0" viewBox="0 0 1135 439.7" xml:space="preserve" xmlns="http://www.w3.org/2000/svg">
<style type="text/css">
	.st0{fill:#353535;}
	.st1{fill:#4D4D4D;}
	.st2{fill:#666666;}
	.st3{fill:#0000FF;}
	.st4{fill:#CCCCCC;}
	.st5{fill:none;}
	.st6{fill:#FFFFFF;}
	.st7{font-family:'Verdana';}
	.st8{font-size:11px;}
	.st9{fill:#5B5B5B;}
	.st10{font-size:11.2966px;}
	.st11{font-size:12px;}
	.st12{fill:#707070;}
</style>

<rect class="st0" width="1135" height="442"/>
<rect class="st1" x="197" width="743" height="442"/>
<rect class="st1" width="197" height="85"/>
<path class="st2" d="m127.8 34h-51.8c-5.5 0-10-4.5-10-10s4.5-10 10-10h51.8c5.5 0 10 4.5 10 10s-4.5 10-10 10z"/>
<path class="st3" d="m817.9 435.9h-81.6c-5.1 0-9.2-4.1-9.2-9.2v-13c0-5.1 4.1-9.2 9.2-9.2h81.6c5.1 0 9.2 4.1 9.2 9.2v13c0 5-4.1 9.2-9.2 9.2z"/>
<path class="st4" d="m711.2 435.9h-507.4c-3.7 0-6.8-3-6.8-6.8v-17.9c0-3.7 3-6.8 6.8-6.8h507.4c3.7 0 6.8 3 6.8 6.8v17.9c0 3.7-3 6.8-6.8 6.8z"/>
<rect class="st5" x="731.6" y="414.9" width="91" height="14.1"/>
<text class="st6 st7 st8" transform="translate(751.35 423.24)">Ответить</text>
<circle class="st3" cx="35.4" cy="42.5" r="25.3"/>
<path class="st9" d="m179.9 78.4h-104.7c-5.1 0-9.2-4.1-9.2-9.2v-15.3c0-5.1 4.1-9.2 9.2-9.2h104.6c5.1 0 9.2 4.1 9.2 9.2v15.3c0.1 5-4 9.2-9.1 9.2z"/>
<rect class="st0" y="89" width="197" height="85"/>
<path class="st2" d="m140.5 123h-64.5c-5.5 0-10-4.5-10-10s4.5-10 10-10h64.5c5.5 0 10 4.5 10 10s-4.5 10-10 10z"/>
<circle class="st3" cx="35.4" cy="131.5" r="25.3"/>
<path class="st9" d="m179.9 167.4h-104.7c-5.1 0-9.2-4.1-9.2-9.2v-15.3c0-5.1 4.1-9.2 9.2-9.2h104.6c5.1 0 9.2 4.1 9.2 9.2v15.3c0.1 5-4 9.2-9.1 9.2z"/>
<rect class="st0" y="178" width="197" height="85"/>
<path class="st2" d="m117.6 212h-41.6c-5.5 0-10-4.5-10-10s4.5-10 10-10h41.6c5.5 0 10 4.5 10 10s-4.5 10-10 10z"/>
<circle class="st3" cx="35.4" cy="220.5" r="25.3"/>
<path class="st9" d="m179.9 256.4h-104.7c-5.1 0-9.2-4.1-9.2-9.2v-15.3c0-5.1 4.1-9.2 9.2-9.2h104.6c5.1 0 9.2 4.1 9.2 9.2v15.3c0.1 5-4 9.2-9.1 9.2z"/>
<path class="st3" d="m925.7 435.9h-78.6c-5.1 0-9.2-4.1-9.2-9.2v-13c0-5.1 4.1-9.2 9.2-9.2h78.6c5.1 0 9.2 4.1 9.2 9.2v13c0 5-4.1 9.2-9.2 9.2z"/>
<rect class="st5" x="840.9" y="414.9" width="91" height="14.1"/>
<text class="st6 st7 st8" transform="translate(851.49 423.24)">Закрыть чат</text>
<text class="st1 st7 st10" transform="matrix(.8852 0 0 1 204.47 425.89)">Напишите сообщение...</text>
<rect class="st1" x="944" y="156.8" width="191" height="285.2"/>

	
		<rect class="st1" x="944" width="191" height="154"/>
	

<circle class="st3" cx="1039.5" cy="51.8" r="35"/>
<path class="st2" d="m1065.4 116.2h-51.8c-5.5 0-10-4.5-10-10s4.5-10 10-10h51.8c5.5 0 10 4.5 10 10s-4.5 10-10 10z"/>
<rect class="st5" x="964.6" y="131.5" width="149.8" height="23"/>
<text class="st6 st7 st11" transform="translate(968.75 140.62)">Сообщения в группах:</text>
<path class="st9" d="m1114.8 252.9h-151.3c-5.1 0-9.2-4.1-9.2-9.2v-63.4c0-5.1 4.1-9.2 9.2-9.2h151.2c5.1 0 9.2 4.1 9.2 9.2v63.4c0.1 5.1-4 9.2-9.1 9.2z"/>
<path class="st12" d="m1065 194h-51.8c-5.5 0-10-4.5-10-10s4.5-10 10-10h51.8c5.5 0 10 4.5 10 10s-4.4 10-10 10z"/>
<path class="st2" d="m1104.4 245.8h-133.4c-5.5 0-10-4.5-10-10v-23.8c0-5.5 4.5-10 10-10h133.4c5.5 0 10 4.5 10 10v23.8c0 5.5-4.5 10-10 10z"/>
<path class="st9" d="m376.3 67.8h-151.2c-5.1 0-9.2-4.1-9.2-9.2v-28.8c0-5.1 4.1-9.2 9.2-9.2h151.2c5.1 0 9.2 4.1 9.2 9.2v28.8c0 5.1-4.1 9.2-9.2 9.2z"/>
<path class="st9" d="m913.5 299.4h-151.2c-5.1 0-9.2-4.1-9.2-9.2v-81c0-5.1 4.1-9.2 9.2-9.2h151.2c5.1 0 9.2 4.1 9.2 9.2v81c0 5.1-4.1 9.2-9.2 9.2z"/>
<path class="st9" d="m913.5 167.4h-151.2c-5.1 0-9.2-4.1-9.2-9.2v-45.6c0-5.1 4.1-9.2 9.2-9.2h151.2c5.1 0 9.2 4.1 9.2 9.2v45.6c0 5-4.1 9.2-9.2 9.2z"/>
<path class="st9" d="m376.3 378.8h-151.2c-5.1 0-9.2-4.1-9.2-9.2v-26.7c0-5.1 4.1-9.2 9.2-9.2h151.2c5.1 0 9.2 4.1 9.2 9.2v26.7c0 5-4.1 9.2-9.2 9.2z"/>
<path class="st12" d="m902.4 154h-130.9c-5.5 0-10-4.5-10-10v-21c0-5.5 4.5-10 10-10h130.9c5.5 0 10 4.5 10 10v21c0 5.5-4.5 10-10 10z"/>
<path class="st12" d="m363.2 62.3h-131.3c-5.5 0-10-4.5-10-10v-15.3c0-5.5 4.5-10 10-10h131.3c5.5 0 10 4.5 10 10v15.3c0 5.5-4.5 10-10 10z"/>
<path class="st12" d="m283.7 366.2h-51.8c-5.5 0-10-4.5-10-10s4.5-10 10-10h51.8c5.5 0 10 4.5 10 10s-4.5 10-10 10z"/>
<path class="st12" d="m902.9 291.5h-131.9c-5.5 0-10-4.5-10-10v-64.8c0-5.5 4.5-10 10-10h132c5.5 0 10 4.5 10 10v64.8c-0.1 5.5-4.5 10-10.1 10z"/>
</svg>
